<mxfile host="app.diagrams.net" agent="Mozilla/5.0 (Windows NT 10.0; Win64; x64) AppleWebKit/537.36 (KHTML, like Gecko) Chrome/140.0.0.0 Safari/537.36 Edg/140.0.0.0" version="28.2.3">
  <diagram name="Página-1" id="5psARQ8sXKjtJTM6Yz9w">
    <mxGraphModel dx="1418" dy="786" grid="1" gridSize="10" guides="1" tooltips="1" connect="1" arrows="1" fold="1" page="1" pageScale="1" pageWidth="827" pageHeight="1169" math="0" shadow="0">
      <root>
        <mxCell id="0" />
        <mxCell id="1" parent="0" />
        <mxCell id="iWMuqHvY_wEAiCFhSCZj-1" value="Inicio" style="ellipse;whiteSpace=wrap;html=1;fillColor=#f8cecc;strokeColor=#b85450;" vertex="1" parent="1">
          <mxGeometry x="354" y="50" width="120" height="80" as="geometry" />
        </mxCell>
        <mxCell id="iWMuqHvY_wEAiCFhSCZj-2" value="Fim" style="ellipse;whiteSpace=wrap;html=1;fillColor=#f8cecc;strokeColor=#b85450;" vertex="1" parent="1">
          <mxGeometry x="354" y="670" width="120" height="80" as="geometry" />
        </mxCell>
        <mxCell id="iWMuqHvY_wEAiCFhSCZj-3" value="ler nota" style="shape=parallelogram;perimeter=parallelogramPerimeter;whiteSpace=wrap;html=1;fixedSize=1;" vertex="1" parent="1">
          <mxGeometry x="354" y="190" width="120" height="60" as="geometry" />
        </mxCell>
        <mxCell id="iWMuqHvY_wEAiCFhSCZj-4" value="" style="endArrow=classic;html=1;rounded=0;" edge="1" parent="1" source="iWMuqHvY_wEAiCFhSCZj-1" target="iWMuqHvY_wEAiCFhSCZj-3">
          <mxGeometry width="50" height="50" relative="1" as="geometry">
            <mxPoint x="420" y="350" as="sourcePoint" />
            <mxPoint x="470" y="300" as="targetPoint" />
          </mxGeometry>
        </mxCell>
        <mxCell id="iWMuqHvY_wEAiCFhSCZj-5" value="" style="endArrow=classic;html=1;rounded=0;" edge="1" parent="1" source="iWMuqHvY_wEAiCFhSCZj-3" target="iWMuqHvY_wEAiCFhSCZj-6">
          <mxGeometry width="50" height="50" relative="1" as="geometry">
            <mxPoint x="380" y="350" as="sourcePoint" />
            <mxPoint x="414" y="310" as="targetPoint" />
          </mxGeometry>
        </mxCell>
        <mxCell id="iWMuqHvY_wEAiCFhSCZj-6" value="nota&amp;gt;9.5" style="rhombus;whiteSpace=wrap;html=1;" vertex="1" parent="1">
          <mxGeometry x="374" y="320" width="80" height="80" as="geometry" />
        </mxCell>
        <mxCell id="iWMuqHvY_wEAiCFhSCZj-7" value="" style="endArrow=classic;html=1;rounded=0;entryX=0.5;entryY=0;entryDx=0;entryDy=0;" edge="1" parent="1" source="iWMuqHvY_wEAiCFhSCZj-6" target="iWMuqHvY_wEAiCFhSCZj-8">
          <mxGeometry width="50" height="50" relative="1" as="geometry">
            <mxPoint x="490" y="370" as="sourcePoint" />
            <mxPoint x="540" y="360" as="targetPoint" />
            <Array as="points">
              <mxPoint x="560" y="360" />
            </Array>
          </mxGeometry>
        </mxCell>
        <mxCell id="iWMuqHvY_wEAiCFhSCZj-19" value="Sim" style="edgeLabel;html=1;align=center;verticalAlign=middle;resizable=0;points=[];" vertex="1" connectable="0" parent="iWMuqHvY_wEAiCFhSCZj-7">
          <mxGeometry x="0.012" y="-1" relative="1" as="geometry">
            <mxPoint as="offset" />
          </mxGeometry>
        </mxCell>
        <mxCell id="iWMuqHvY_wEAiCFhSCZj-8" value="escrever Passou" style="shape=parallelogram;perimeter=parallelogramPerimeter;whiteSpace=wrap;html=1;fixedSize=1;" vertex="1" parent="1">
          <mxGeometry x="500" y="420" width="120" height="60" as="geometry" />
        </mxCell>
        <mxCell id="iWMuqHvY_wEAiCFhSCZj-9" value="Escrever Reprovado" style="shape=parallelogram;perimeter=parallelogramPerimeter;whiteSpace=wrap;html=1;fixedSize=1;" vertex="1" parent="1">
          <mxGeometry x="360" y="510" width="120" height="60" as="geometry" />
        </mxCell>
        <mxCell id="iWMuqHvY_wEAiCFhSCZj-10" value="" style="endArrow=classic;html=1;rounded=0;" edge="1" parent="1" source="iWMuqHvY_wEAiCFhSCZj-6" target="iWMuqHvY_wEAiCFhSCZj-9">
          <mxGeometry width="50" height="50" relative="1" as="geometry">
            <mxPoint x="420" y="390" as="sourcePoint" />
            <mxPoint x="460" y="410" as="targetPoint" />
          </mxGeometry>
        </mxCell>
        <mxCell id="iWMuqHvY_wEAiCFhSCZj-18" value="Nâo" style="edgeLabel;html=1;align=center;verticalAlign=middle;resizable=0;points=[];" vertex="1" connectable="0" parent="iWMuqHvY_wEAiCFhSCZj-10">
          <mxGeometry x="-0.0956" y="1" relative="1" as="geometry">
            <mxPoint as="offset" />
          </mxGeometry>
        </mxCell>
        <mxCell id="iWMuqHvY_wEAiCFhSCZj-11" value="" style="endArrow=classic;html=1;rounded=0;" edge="1" parent="1" source="iWMuqHvY_wEAiCFhSCZj-15" target="iWMuqHvY_wEAiCFhSCZj-2">
          <mxGeometry width="50" height="50" relative="1" as="geometry">
            <mxPoint x="440" y="630" as="sourcePoint" />
            <mxPoint x="490" y="580" as="targetPoint" />
          </mxGeometry>
        </mxCell>
        <mxCell id="iWMuqHvY_wEAiCFhSCZj-14" value="" style="endArrow=classic;html=1;rounded=0;exitX=1;exitY=0.75;exitDx=0;exitDy=0;" edge="1" parent="1" source="iWMuqHvY_wEAiCFhSCZj-8" target="iWMuqHvY_wEAiCFhSCZj-15">
          <mxGeometry width="50" height="50" relative="1" as="geometry">
            <mxPoint x="550" y="560" as="sourcePoint" />
            <mxPoint x="560" y="680" as="targetPoint" />
            <Array as="points">
              <mxPoint x="600" y="610" />
            </Array>
          </mxGeometry>
        </mxCell>
        <mxCell id="iWMuqHvY_wEAiCFhSCZj-16" value="" style="endArrow=classic;html=1;rounded=0;exitX=0.45;exitY=0.933;exitDx=0;exitDy=0;exitPerimeter=0;" edge="1" parent="1" source="iWMuqHvY_wEAiCFhSCZj-9" target="iWMuqHvY_wEAiCFhSCZj-15">
          <mxGeometry width="50" height="50" relative="1" as="geometry">
            <mxPoint x="419" y="570" as="sourcePoint" />
            <mxPoint x="416" y="650" as="targetPoint" />
          </mxGeometry>
        </mxCell>
        <mxCell id="iWMuqHvY_wEAiCFhSCZj-15" value="" style="ellipse;whiteSpace=wrap;html=1;aspect=fixed;fillColor=#f8cecc;strokeColor=#b85450;" vertex="1" parent="1">
          <mxGeometry x="404" y="600" width="20" height="20" as="geometry" />
        </mxCell>
      </root>
    </mxGraphModel>
  </diagram>
</mxfile>
